<svg xmlns="http://www.w3.org/2000/svg" xmlns:xlink="http://www.w3.org/1999/xlink" version="1.1" x="0px" y="0px" viewBox="0 0 1000 1250" style="enable-background:new 0 0 1000 1000;" xml:space="preserve"><path d="M917.1,219.2H82.9c-7.4,0-13.3,6-13.3,13.3v478.2c0,7.4,6,13.3,13.3,13.3h375.4v30.1H351.8c-7.4,0-13.3,6-13.3,13.3  s6,13.3,13.3,13.3h119.9h56.7h119.9c7.4,0,13.3-6,13.3-13.3s-6-13.3-13.3-13.3H541.7v-30.1h375.4c7.4,0,13.3-6,13.3-13.3V232.5  C930.4,225.2,924.5,219.2,917.1,219.2z M515,754.2H485v-30.1H515V754.2z M903.8,697.4H528.4h-56.7H96.2V245.8h807.6V697.4z"/><text x="0" y="1015" fill="#000000" font-size="5px" font-weight="bold" font-family="'Helvetica Neue', Helvetica, Arial-Unicode, Arial, Sans-serif">Created by Nestor Arellano</text><text x="0" y="1020" fill="#000000" font-size="5px" font-weight="bold" font-family="'Helvetica Neue', Helvetica, Arial-Unicode, Arial, Sans-serif">from the Noun Project</text></svg>