<svg xmlns="http://www.w3.org/2000/svg" xmlns:xlink="http://www.w3.org/1999/xlink" viewBox="0 0 32 40" version="1.1" x="0px" y="0px"><title>layn-jobsite-wall-32</title><desc>Created with Sketch.</desc><g stroke="none" stroke-width="1" fill="none" fill-rule="evenodd"><path d="M30,12 L30,16 L30,20 L30,24 L30,29 L21,29 L12,29 L2,29 L2,24 L2,20 L2,16 L2,12 L2,8 L2,4 L8.5,4 L16.5,4 L23.5,4 L30,4 L30,8 L30,12 Z M29,12 L29,9 L23.5,9 L21,9 L21,12 L23.5,12 L29,12 Z M20,12 L20,9 L16.5,9 L12,9 L12,12 L16.5,12 L20,12 Z M11,12 L11,9 L8.5,9 L3,9 L3,12 L8.5,12 L11,12 Z M7.5,13 L3,13 L3,16 L7.5,16 L7.5,13 Z M15.5,13 L12,13 L8.5,13 L8.5,16 L12,16 L15.5,16 L15.5,13 Z M23.5,13 L21,13 L16.5,13 L16.5,16 L21,16 L23.5,16 L23.5,13 Z M29,13 L24.5,13 L24.5,16 L29,16 L29,13 Z M3,20 L8.5,20 L11,20 L11,17 L8.5,17 L3,17 L3,20 Z M12,20 L16.5,20 L20,20 L20,17 L16.5,17 L12,17 L12,20 Z M21,20 L23.5,20 L29,20 L29,17 L23.5,17 L21,17 L21,20 Z M7.5,21 L3,21 L3,24 L7.5,24 L7.5,21 Z M15.5,21 L12,21 L8.5,21 L8.5,24 L12,24 L15.5,24 L15.5,21 Z M23.5,21 L21,21 L16.5,21 L16.5,24 L21,24 L23.5,24 L23.5,21 Z M29,21 L24.5,21 L24.5,24 L29,24 L29,21 Z M29,25 L23.5,25 L21,25 L21,28 L29,28 L29,25 Z M20,25 L16.5,25 L12,25 L12,28 L20,28 L20,25 Z M3,25 L3,28 L11,28 L11,25 L8.5,25 L3,25 Z M3,8 L7.5,8 L7.5,5 L3,5 L3,8 Z M8.5,8 L12,8 L15.5,8 L15.5,5 L8.5,5 L8.5,8 Z M16.5,8 L21,8 L23.5,8 L23.5,5 L16.5,5 L16.5,8 Z M24.5,8 L29,8 L29,5 L24.5,5 L24.5,8 Z" fill="#000000" fill-rule="nonzero"/></g><text x="0" y="47" fill="#000000" font-size="5px" font-weight="bold" font-family="'Helvetica Neue', Helvetica, Arial-Unicode, Arial, Sans-serif">Created by Groendilla</text><text x="0" y="52" fill="#000000" font-size="5px" font-weight="bold" font-family="'Helvetica Neue', Helvetica, Arial-Unicode, Arial, Sans-serif">from the Noun Project</text></svg>